<?xml version="1.0" encoding="UTF-8"?>
<!-- Created with Inkscape by VulcanSphere (http://www.inkscape.org/ and https://en.wikipedia.org/wiki/User:VulcanSphere) -->
<svg id="svg1117" width="686.06" height="552.77" version="1.1" viewBox="0 0 686.06 552.77" xmlns="http://www.w3.org/2000/svg">
<title id="title1">Vinland Saga</title>
<desc id="desc1">Historical animanga by Makoto Yukimura</desc>
 <g id="g1" transform="matrix(1.0255 0 0 1.0179 -18.479 -84.932)">
  <path id="path1181" d="m212 624.62c-15.235-4.9272-25.592-17.521-28.496-32.759-2.0981-9.9457-1.9594-20.206-2.5044-30.331 0-5.4482 0.31674-10.449 0.89592-10.46 16.17-0.28567 11.372-0.14515 34.714-0.79901 1.2553 12.364 1.9359 25.18 3.6312 37.722 1.1448 8.4698 12.081 3.5908 12.438-3.4089 0.53135-10.414-1.0094-22.905-1.4183-32.473-0.26454-6.1892-9.4134-7.7254-13.782-11.517-2.8258-2.4524-9.5662-7.6558-13.925-12.589-16.614-18.803-17.765-22.028-18.58-25.676-0.92202-4.1269-5.7269-42.127-2.3447-55.76 3.7332-15.049 11.181-23.19 25.859-28.265 10.756-3.7192 30.629-1.733 40.013 3.9991 14.263 8.7128 18.5 18.947 18.5 44.691 0 11.991-0.20402 13.656-1.75 14.281-1.628 0.65787-8.77 0.65727-27.25-2e-3l-7.5-0.26768-0.0158-12c-0.0132-9.9982-0.32429-12.459-1.865-14.75-2.3722-3.5277-5.8256-3.5743-8.5466-0.11514-1.7952 2.2822-2.0726 4.0276-2.0726 13.04 0 12.53 1.3214 15.769 9.6197 23.578 17.283 16.506 34.008 24.245 40.356 49.891 1.4951 9.1031 1.3182 7.2874 1.5247 12.856 0.48907 13.193 0.45187 9.6384 0.30324 29-0.0661 8.6093-2.0136 19.531-5.4197 25.084-3.0718 5.007-10.942 11.76-16.957 14.549-9.989 4.6319-25.433 5.7136-35.427 2.4814zm181.56-1.1083c-3.3255-1.7008-7.1838-4.3356-8.992-6.5093-4.3304-5.206-6.3378-8.5541-8.578-13.032-2.1457-4.2893-3.9327-9.3662-5.4728-16.509-0.75107-3.4834-1.3947-9.0512-1.383-12.295l0.41254-114.38c1.422-14.438 5.8718-24.509 14.441-32.682 8.0112-7.6414 15.03-10.689 26.133-11.346 13.458-0.79713 22.523 0.85645 32.131 9.5 4.643 4.177 8.3937 7.5432 11.59 14.084 3.5876 7.9573 5.0198 15.095 6.2624 31.211 1.3763 17.851 0.88029 22.703-2.3957 23.432-1.81 0.40284-31.88-0.7255-37.145-0.4905-1.1976 0.0535-0.54651-13.822-0.56079-21.812 0-13.522-0.29838-17.154-1.5567-18.95-2.1682-3.0956-5.9721-2.871-8.1702 0.48231-1.5964 2.4353-1.7922 5.998-1.9656 35.75l-0.30743 46.505c-0.14603 8.8947 0.13444 17.349 0.21419 26.375 0.0395 4.4711 0.60293 23.734 2.3587 26.416 0.93782 1.4323 2.4744 2.25 4.228 2.25 1.6082 0 3.5721-0.93648 4.7186-2.25 1.7787-2.0378 1.9979-4.0993 2.3242-21.859l0.36023-19.609-3.0063-2.1407c-1.6534-1.1774-3.453-2.1407-3.9991-2.1407-0.98891 0-2.1885-23.775-1.3749-27.25 0.37539-1.6034 2.3166-1.75 23.176-1.75 26.094 0 23.96-0.90781 23.986 10.2-0.11514 2.9371-0.37951 22.952-0.54221 55.566l1.2747 30.233c3.1588 3.3834 2.5753-16.411 2.3401-18.828l37.622 17.709c-0.93285 11.022-1.1466 11.511-3.7618 12.242-1.3305 0.37196-15.795 0.72115-32.143 0.77597l-29.724 0.0997-1.5257-2.9503c-0.83912-1.6227-1.5257-4.2962-1.5257-5.941 0-4.2864-1.7359-4.76-3.7593-1.0257-2.2969 4.239-7.1724 9.917-8.5155 9.917-0.58722 0-1.8581 0.71532-2.8242 1.5896-1.171 1.0598-4.3638 1.7427-9.5787 2.0488-7.2384 0.42493-9.1689 0.22838-14.764-2.6331zm-122.76-2.7554c-0.39734-1.5963 0.77797-18.616 2.7588-35.5 1.3068-11.139 2.2762-20.017 3.505-32.617 1.8281-18.745 2.9089-32.756 3.9436-42.633 2.3906-22.819 5.8811-61.463 6.7152-67.128 1.6392-11.132 2.3432-15.067 4.1821-22.32 0.24729-0.97528 13.233-0.79323 27.436-0.70772 24.31 0.14637 26.966-0.15027 27.242 2.0966 0.81554 6.6188 3.3391 19.944 3.6379 25.059 0.22588 3.8668 1.212 11.05 1.7496 16s1.6872 15.075 2.5545 22.5 2.2103 19.8 2.9846 27.5 1.72 15.744 2.1016 17.876c3.0438 35.191 8.4747 76.566 9.5332 89.691-9.012 0.65351-26.713 1.1392-39.642 1.4329-1.2298-12.068-2.0477-22.326-3.05-34.406-0.16504-1.989-13.027-2.2822-13.113-0.83012-0.8401 14.16-1.2895 22.093-1.6831 35.721 0 0-40.408 0.0654-40.856-1.7347zm54.64-74.25c-0.24258-13.64-4.6326-64-5.579-64-3.0183 17.86-4.3696 35.877-5.887 53.901-1.1606 13.689-0.86718 14.322 6.4395 13.896l5.0888-0.29667zm176.27 63.142s-37.495-17.747-37.476-17.762c0 0 0.8542-18.697 2.2596-34.147 2.277-26.702 5.2139-53.349 7.4845-80.05 0.93833-11.797 2.3871-25.176 5.5691-51.431 0.36289-2.9942 1.2006-5.082 2.2685-5.6535 2.4073-1.2883 49.032-1.197 52.448 0.10279 2.9309 1.1153 3.3057 2.0936 4.1374 10.798 3.7641 33.335 7.1798 66.69 11.105 100 0.8686 7.425 2.065 14.246 2.1043 15.25 0.21681 5.5338 10.33 75.13 10.33 75.13l-44.526-0.0812s1.1707-35.538-0.15999-35.466l-7.0039 0.37569c-7.6739 0.28919-7.7532 0.31969-8.0727 3.1067-0.29015 2.4727-0.7161 17.353-0.46815 19.827zm12.412-61.619c-1.4496-18.955-1.0926-32.181-1.9544-49.011-0.5715-13.7-0.902-16.033-2.3087-16.302-1.3778-0.26351-1.7178 0.94026-2.1152 7.4885-2.0561 33.885-4.2596 46.078-4.5002 58.605-0.0346 1.8038 11.031 1.2175 10.879-0.77963zm-359.44-85.373c-0.92158-2.3033-3.4124-7.8917-5.5353-12.419-2.1228-4.527-4.823-10.364-6.0005-12.97l-2.1408-4.7391v-349.09l31-4e-5v348.81l-2.1157 4.8771c-2.397 5.5254-7.8078 17.47-11.233 24.796l-2.2994 4.9187zm-111.02-60.978c-0.9832-1.0864-1.1431-3.5754-1.655-6-1.6414-7.7751-0.97693-4.998-2.775-21.19-1.8773-16.905-0.99077-20.269-1.2839-20.168-0.54822 0.18939-1.4078-4.604-1.9058-9.8236s-1.6719-15.557-2.4504-22.99c-2.0904-19.957-1.2057-14.113-3.2706-27.304-0.65222-4.2922-1.6651-12.842-2.2508-19-0.5857-6.1578-1.7322-17.046-2.5478-24.196-0.81561-7.15-2.1456-18.85-2.9555-26s-2.1579-18.4-2.9955-25-1.5324-13.655-1.5439-15.679c-0.03753-6.5976 0.74604-6.8338 22.301-6.7218 10.548 0.0548 20.304 0.41089 21.679 0.79126 2.3412 0.64765 2.5422 1.2289 3.1646 9.1503 0.36552 4.6523 1.1251 13.634 1.688 19.959s1.505 18.25 2.0936 26.5 1.595 20.11 2.2364 26.356c1.7715 4.7424 1.8097 16.92 1.8097 16.92 0.06917-0.0137 0.30876 1.8272 0.0078 8.5936-0.37018 8.3229-1.0413 6.7633 0.58097 16.725 0.50547 3.3001 1.369 5.9917 1.919 5.9812 0.55-0.0105 1.3857-12.268 1.6747-15.021 0.43444-1.8176 44.066-6.5138 44.339-7.4208 0.14943-0.49697-1.1766 14.414-1.6228 16.717-0.44191 2.2812-0.82009 6.3977-0.84041 9.1477-0.0203 2.75-0.50702 8.375-1.0816 12.5-1.8699 13.425-4.0171 34.402-3.9579 38.665 0.0319 2.2906-0.63253 8.7823-1.4764 14.426-0.84383 5.6438-1.5343 12.186-1.5343 14.538 0 5.4223-1.5544 8.8469-4.6573 10.261-1.6087 0.73298-12.393 1.1103-31.735 1.1103-27.113 0-29.421-0.13636-30.953-1.8287zm146.77 0.52905c-1.0411-0.58263-1.429-28.566-1.429-81.764v-98.794c0-39.074 0.12471-42.133 1.75-42.933 1.6366-0.80531 34.141-0.65207 34.957 0.16481 0.35941 0.35941 9.4306 36.628 12.787 51.126 1.7958 7.7565 3.5601 10.861 4.9253 20.235 1.1434 7.8504 3.7957 16.448 3.7957 16.448 1.5335-17.298 2.7845-33.173 2.7845-49.792v-38.164l3.25-0.48409c1.7875-0.26625 9.907-0.25127 18.043 0.0333 12.824 0.4485 14.92 0.75383 15.744 2.2931 0.58478 1.0927 0.56646 15.232 0.29622 36.766-0.24246 19.319-0.67626 35.093 0.10093 48.665 0.0975 3.85-0.12915 7.45-0.50368 8-0.37454 0.55-0.2636 4.15 0.24653 8 0.52679 3.9757 0.6376 19.421 0.25648 35.75-0.59951 25.686-0.38101 28.746-0.56879 28.724 0 0 2.2208 53.274-0.15922 55.654-0.42083 0.42083-8.8404 0.90897-18.71 1.0848-16.005 0.28506-16.173-0.30614-17.34-1.2561-3.3109-2.6937-3.1986-3.0827-4.0217-5.7925-0.51478-1.6948-1.2344-5.8639-2.0094-9.1639-2.3993-10.217-4.7626-20.696-6.3145-28-0.81805-3.85-1.8573-8.575-2.3095-10.5-1.088-4.6319-3.6558-16.362-5.418-24.75-1.6803-7.9985-2.4882-10.25-3.6777-10.25-0.49036 0-0.99775 18.089-1.143 40.75l-0.26122 48.452-13 0.23262c-5.7809-0.0911-6.4355-0.0375-16.071 0.065-2.5141 0-5.2141-0.35986-6-0.79969zm238.22 0.54207c-0.95075-1.5383-1.6263-8.0627-2.096-20.242-0.61189-15.868-1.1756-18.664-3.9111-19.398-3.0888-0.82875-9.9343-0.704-11.369 0.20718-0.82165 0.52199-1.0555 5.5708-1.8823 15.235-0.56834 6.6427-1.1198 17.372-1.9816 22.329-0.56579 1.4744-5.6623 1.6268-54.435 1.6268-29.596 0-54.523-0.27314-55.393-0.60699-1.422-0.54569-1.5818-7.8513-1.5818-72.339l1.25-78.309c-0.95772-0.75827-1.25-9.2479-1.25-36.308 0-19.425 0.35385-35.537 0.78634-35.805s9.5817-0.72678 20.332-1.0211c16.472-0.45096 19.886-0.29629 21.714 0.98367 2.1481 1.5046 2.168 1.8148 2.1365 33.212-0.73914 735.86 0.0318 65.045 0.0318 90.69 0 62.003-1.5145 55.504 12.934 55.504 12.953 0 12.687 0.42648 14.643-23.5 0.17984-2.2 0.75702-8.275 1.2826-13.5s1.4656-15.35 2.0888-22.5 1.5571-15.7 2.0753-19 1.1908-9.825 1.4947-14.5c0.59533-9.1579 1.8672-22.143 3.5753-36.5 0.5889-4.95 1.4399-13.725 1.8911-19.5 1.1994-15.35 3.1043-29.359 4.143-30.467 0.87272-0.93117 61.679-1.0588 62.607-0.13146 0.40505 0.40506 2.7222 19.515 5.7109 47.099 0.77471 7.15 2.3345 21.55 3.4662 32 1.1317 10.45 2.5021 21.925 3.0453 25.5s1.2379 10.325 1.5439 15c0.30595 4.675 0.99565 10.975 1.5327 14s2.3185 18.55 3.9589 34.5c1.6404 15.95 3.5216 31.808 4.0224 35.264 0.70274 4.8497 1.5791 15.128 1.4417 20.403-0.0286 1.0996-0.5147 0.83245-21.917 0.83245-11.782 0-21.633-0.34093-21.89-0.75762zm-6.1846-81.593c1.5532-1.1357 1.7351-2.1313 1.1422-6.25-0.38791-2.6945-1.1181-11.649-1.6227-19.899-1.4242-23.285-3.158-45.849-3.648-47.472-0.76127-2.5218-2.1906 0.83098-2.7555 6.4634-3.7826 37.719-5.9196 66.152-5.0746 67.519 0.90725 1.468 9.8252 1.1982 11.959-0.36177zm55.557-34.052c-0.0409-67.961 0.28975-107.67 0.89951-108.05 0.53025-0.32771 8.4295-0.66681 17.554-0.75354 13.246-0.12592 16.864 0.13079 17.952 1.2738 1.2129 1.2749 2.2715 5.1306 7.1193 25.932 1.6117 6.9153 7.8396 31.922 10.584 42.5 1.1418 4.4 2.452 10.136 2.9117 12.747 0.45965 2.611 1.1191 5.2059 1.4655 5.7663 1.9093 3.0894 2.4916-2.1538 2.4916-22.437l0.62465-64.57c1.143-1.1012 34.946-1.7548 36.013-0.69638 0.4497 0.44606 0.82105 3.1461 0.82522 6 4e-3 2.854-0.0983 44.451-0.22768 92.439-0.15699 58.221-0.9933 9.4619-0.33807 107.75 0.0642 9.625-0.22395 17.516-0.64026 17.535-0.41631 0.0193-7.3526-0.0704-15.398 0.29797-9.3227 0.42689-22.281 0.42065-22.281 0.42065-9.0564-34.014-18.525-88.754-21.15-88.754-1.1072 0-1.018 16.987-2.0626 45.801-0.431 11.889-0.96668 29.045-0.95613 41.889-1.3021 0.95213-6.222 1.4115-18.022 1.3096l-17.276-0.14922c-1.651-0.0143-0.10726-78.213-0.0882-116.25zm107.23 115.26c-0.94747-0.95171-0.94509-8.9538-1.25-33.056-0.49715-39.298 0.0215-71.524 0.0153-112.16 9e-3 -43.805 0.4005-76.752 0.92228-77.576 1.6004-2.529 71.524 1.7244 69.962 1.4994 0 0 10.797 4.4826 15.566 7.4339 3.667 2.2691 11.51 12.071 13.133 20.248 5.3221 26.826 2.9607 59.15 2.5745 88.502-1.7255 96.28-0.29735 34.254-0.4044 43.776-0.25767 22.92-0.31811 23.498-0.31811 23.498 0.0323 1.7014-0.067-7.4e-4 -0.49235 9.736l-1.0834 5.0518c-0.94227 4.2054-2.9157 7.87-5.2813 11.475-15.958 10.667-8.9644 11.386-58.093 12.519-26.283 0.23624-34.284 0.0206-35.25-0.95zm56.422-43.905c0.34065-24.72 0.0457-47.014 0.12145-67.456 0.26114-57.324 0.11658-64.88-1.2982-67.862-2.7044-5.6992-9.8013-7.5886-11.52-3.067-0.59849 1.5741-0.98117 28.907-0.99056 70.75-8e-3 37.502-0.57679 67.698-0.82995 66.901-0.15021-0.47292 0.55079 2.5164 2.1242 3.7426 2.2512 1.7543 12.337 1.0984 12.393-3.0083zm-564.79-64.999 0.67718-7.2259 0.92666-15.706c-0.0213 0.36103 0.9233-7.8814 1.5018-16.624 1.3176-19.915 3.7336-54.185 4.6102-65.396 0.36555-4.675 1.1103-9.0625 1.655-9.75 0.73664-0.92973 6.4363-1.25 22.246-1.25 15.795 0 21.517 0.32113 22.273 1.25 1.0777 1.3237 0.19312 19.905-1.7019 35.75-1.8651 15.595-3.3925 30.376-4.4869 43.421-0.59621 7.1065-1.1643 12.995-1.7183 13.178-0.60699 0.19979-0.86738 3.6093-0.65521 8.5791 0.28743 6.7327-0.78102 6.9735-0.9427 6.9976-7.7247 1.1515-22.192 5.9572-44.384 6.7764zm143.14-130.55c8.076-8.9315 14.597-21.844 16.554-32.781l0.69508-3.884-4.8864 0.72759c-2.6875 0.40018-5.3364 1.0835-5.8864 1.5185-0.55 0.43502-2.5602 1.1251-4.4672 1.5336-1.9069 0.40845-4.1569 1.1026-5 1.5425-0.84305 0.43991-2.3203 1.0436-3.2828 1.3415-1.4283 0.44204-1.75 1.7198-1.75 6.9506 0 6.7089-1.4825 9.4501-4.4873 8.2971-1.1543-0.44295-1.5203-2.3058-1.5445-7.8619-0.0215-4.9233-0.5233-7.9291-1.5495-9.2814-1.4208-1.8724-1.3391-2.0356 1.2818-2.5579 1.5397-0.30686 4.0774-0.21418 5.6393 0.20596 1.8625 0.501 4.1856 0.22545 6.75-0.80064 3.8056-1.5227 3.9102-1.6962 3.9102-6.4882 0-4.1683-0.33949-5.0492-2.213-5.7423l-2.213-0.81863 2.2592-1.2091c1.2425-0.66498 3.7009-1.0696 5.463-0.89915l3.2038 0.30991-0.33213 6.3291c-0.31906 6.08-0.25275 6.2867 1.6843 5.25 1.109-0.59353 2.8088-1.0791 3.7774-1.0791s2.9815-1.1693 4.4732-2.5984l2.7121-2.5984 3.0926 2.2864c3.5774 2.6448 3.756 3.518 1.2985 6.3459-0.98674 1.1354-2.633 4.7644-3.6584 8.0644-2.8917 9.3062-7.8926 17.61-13.875 23.04-9.1901 8.3409-12.968 10.74-7.6483 4.8566zm182.84 2.3531c-0.0766-0.6875-0.0264-10.316 0.11146-21.397 0.25013-20.099 0.2454-20.149-1.9929-20.859-3.1476-0.99901-0.63306-2.4581 4.2707-2.4781 4.2208-0.0172 4.3912 0.48987 2.6717 7.952-0.56618 2.457-0.77161 5.4945-0.4565 6.75 0.51191 2.0396 1.1831 2.2861 6.3039 2.3145 7.8369 0.0435 10.55 2.3672 8.624 7.3864-1.0131 2.64-3.7822 1.7916-7.893-2.4182-2.1482-2.2-4.7586-4-5.8007-4-1.7688 0-1.8799 0.8146-1.6709 12.25 0.12317 6.7375 0.16715 13.038 0.0978 14-0.14447 2.0035-4.047 2.4609-4.2655 0.5zm65.139 0.66867c0-0.53551 0.60992-1.8613 1.3554-2.9462 3.5686-5.1935 9.2262-30.224 7.2729-32.178-0.68002-0.68003-6.1598 0.87238-10.378 2.9402-2.0802 1.0197-2.25 1.7692-2.25 9.9339 0 8.6478-0.0496 8.831-2.393 8.831-3.1543 0-3.7585-1.9283-2.5692-8.1995 1.3053-6.8827 0.19227-7.8803-4.976-4.4601-2.2104 1.4628-4.6878 2.6596-5.5052 2.6596-1.7764 0-3.5566-3.0238-3.5566-6.0412 0-1.6847 0.39308-2.0064 1.75-1.4322 2.4758 1.0476 4.434 0.84128 8.6218-0.90851 4.2985-1.796 5.0879-3.3544 4.172-8.2365-0.44439-2.3688-1.3386-3.7766-2.6099-4.1091-2.6899-0.70343-2.4132-2.1397 0.63552-3.2988 2.6631-1.0125 7.0495-0.39924 7.9864 1.1166 0.29527 0.47776-0.0158 2.7133-0.69128 4.9678-1.4862 4.9606-0.24512 6.2642 4.5293 4.7574 7.3922-2.3329 7.7201-2.7199 7.4004-8.7333-0.243-4.5704-0.68361-5.726-2.5333-6.6442l-2.2392-1.1115 2.316-1.2395c1.2738-0.6817 3.8564-1.0926 5.7392-0.91318l3.4232 0.32627-0.33891 6.75c-0.37614 7.4915-0.27494 7.5796 5.8794 5.1171 4.8286-1.932 8.9596-0.72795 8.9596 2.6114 0 1.7282-0.68895 2.0386-4.75 2.1399-2.6125 0.0652-5.3074 0.0466-5.9887-0.0412-0.68127-0.0878-2.1438 0.32467-3.25 0.91671-1.5887 0.85027-2.0113 2.0908-2.0113 5.9047 0 11.545-4.1804 22.976-10.72 29.315-1.8039 1.7484-3.2798 2.7408-3.2798 2.2052zm-141.43-4.6687c5.5311-5.9015 8.1418-9.8518 11.963-18.103 3.3654-7.2657 3.5006-8.6475 0.84609-8.6475-2.0331 0-11.014 3.8491-15.594 6.6839l-3.7181 2.3009-2.0319-2.181c-1.1175-1.1995-2.0319-2.9961-2.0319-3.9924 0-2.117 0.38969-2.2095 2.8459-0.67561 1.4305 0.89334 3.1889 0.64899 8.2364-1.1445 9.9251-3.5266 12.161-4.4275 15.744-6.3431 3.0618-1.6371 3.5189-1.6522 5.75-0.1903 2.6179 1.7153 3.0518 3.0358 1.3444 4.0911-0.59364 0.36689-2.8826 4.4442-5.0867 9.0607-2.7035 5.6626-5.8499 10.29-9.6706 14.222-8.3586 8.6016-16.315 13.154-8.5965 4.9188zm170.22 1.9798c2.2636-2.4094 9.4628-17.358 10.586-21.98 0.83845-3.451-0.80017-3.6088-5.9464-0.57242-3.5836 2.1144-3.7304 2.1233-5.0572 0.30887-1.3237-1.8103-1.8952-5.4864-0.85286-5.4864 0.28246 0 1.295 0.4857 2.25 1.0793 1.3064 0.81206 2.9735 0.61898 6.7322-0.77975 4.8109-1.7903 5.0288-2.0398 5.8879-6.7419 0.73912-4.0457 0.61391-5.0862-0.73027-6.0691-2.2056-1.6127-1.0395-2.4885 3.3132-2.4885 5.289 0 6.1096 1.3388 3.7471 6.1138-1.1469 2.3181-1.6116 4.379-1.0999 4.878 1.0783 1.0514 7.3861-1.4624 7.3861-2.9434 0-1.4778 2.2711-1.3017 4.5316 0.35121 1.6027 1.1719 1.7293 1.7817 0.77855 3.75-0.62444 1.2928-1.8652 6.2499-2.7572 11.016-1.7217 9.1989-3.5693 13.928-6.8705 17.585-2.9897 3.3118-4.1061 2.8-5.7782-2.649l-1.5033-4.899 2.2641 0.86079c2.3571 0.89617 2.6325 0.68247 5.092-3.9509 1.4386-2.7102 3.7075-15.981 2.8747-16.813-0.30051-0.3005-2.1892 0.10888-4.1971 0.90975-3.2218 1.285-3.9216 2.2306-5.9557 8.0475-3.029 8.662-6.5852 14.596-11.437 19.085-4.3423 4.0176-6.6525 5.0024-3.2575 1.3886zm-218-0.47977c-1.5401-1.7656-3.7835-5.6917-3.7835-6.6214 0-0.27658 1.5073-0.25826 3.3496 0.0407 3.0328 0.49215 4.0024-0.0568 10.25-5.8025 9.2559-8.5124 13.707-13.343 18.077-19.617 2.0111-2.8876 3.8207-5.086 4.0214-4.8854 0.91339 0.91339-8.1662 16.696-12.439 21.622-7.6035 8.7661-15.806 17.013-16.921 17.013-0.56549 0-1.7151-0.7875-2.5546-1.75zm79.289-0.88486c-1.1399-1.4492-2.0726-3.49-2.0726-4.5352 0-1.6154 0.31215-1.7333 2.0821-0.78603 1.725 0.9232 2.7639 0.64179 6.0578-1.6409 4.6741-3.2391 18.347-17.47 22.969-23.905 1.7754-2.4722 3.4008-4.3222 3.612-4.111 0.63166 0.63166-5.9192 12.784-9.4242 17.482-6.0001 8.0433-17.657 20.13-19.414 20.13-0.95576 0-2.6704-1.1857-3.8103-2.6349zm-101.8 0.50801c-0.75789-0.75789-0.93862-4.0321-0.55197-10 0.6765-10.442-0.0306-10.995-6.1943-4.8403-4.7526 4.7454-7.2353 5.3671-2.8638 0.71711 7.1325-7.5868 14.337-18.994 14.337-22.7 0-2.4563 0.25186-2.4879 4.0736-0.5116l2.9743 1.5381-8.6808 10.657 0.37264 10.842c0.48406 14.083-0.32894 17.436-3.4666 14.299zm176.31-16.435c-0.86934-0.86934-1.5806-1.9085-1.5806-2.3092 0-1.3403 2.3806-3.1286 4.1648-3.1286 2.364 0 4.2314 3.4514 2.5642 4.7393-2.7018 2.087-3.6335 2.2134-5.1484 0.69847zm-70.331-14.365c-2.3375-2.1147-4.25-4.1212-4.25-4.459 0-1.1469 10.593-0.62097 11.8 0.58587 1.7402 1.7402 1.4713 4.8736-0.55 6.408-2.3414 1.7774-2.1612 1.8426-7-2.5348zm-80.761-0.55394c-2.194-1.9144-4.4391-3.5211-4.9891-3.5703-2.3649-0.21159 3.3343-1.8147 6.6786-1.8786 3.3208-0.0635 6.8214 1.8756 6.8214 3.7786 0 1.0775-3.019 5.1511-3.8176 5.1511-0.38733 0-2.4993-1.5664-4.6933-3.4808zm138.52-4.1994-2.4901-2.4692 3.9901 0.32468c3.2565 0.26498 4.0489 0.73836 4.3097 2.5747 0.43265 3.0464-2.5245 2.8274-5.8097-0.43017zm-98.343 0.0135c-0.36667-0.36666-0.66667-1.4293-0.66667-2.3613 0-1.2575 0.6297-1.5743 2.4409-1.2281 2.307 0.44101 9.0349-1.6149 14.559-4.449 3.6212-1.8578 9.2349-1.7114 8.8233 0.23018-0.19772 0.93267-4.2078 2.8669-10.323 4.9793-9.9094 3.4229-13.546 4.1164-14.833 2.8289zm205.99-4.1621c-2.2211-2.4543-2.0854-3.1742 0.59501-3.156 3.1941 0.0217 5.145 1.5129 4.4271 3.3838-0.81576 2.1258-2.981 2.0276-5.0221-0.22782zm-101.4-2.1148c-2.946-2.4576-2.8382-3.0564 0.55-3.0564 3.2385 0 5.2771 1.6354 4.5149 3.6219-0.71654 1.8673-2.3701 1.6827-5.0649-0.56542zm107.84-3.6619-2.4084-2.3945h2.9584c3.3799 0 5.448 1.6029 4.6733 3.6219-0.74655 1.9455-2.4299 1.5499-5.2233-1.2274zm-292.58-4.3841c-3.3056-3.4503-2.9072-4.4762 1.3732-3.5361 2.9867 0.65598 4.8617 3.5115 3.6224 5.5167-0.98507 1.5939-1.9298 1.2193-4.9955-1.9806zm7.49-5.5104-3.3923-3.5h3.0854c3.9504 0 7.6692 2.8924 6.7612 5.2588-0.99523 2.5935-2.6811 2.1341-6.4542-1.7588z" fill="#a00"/>
 </g>
</svg>
